<mxfile host="app.diagrams.net" modified="2024-07-22T01:17:39.370Z" agent="Mozilla/5.0 (X11; Linux x86_64; rv:128.0) Gecko/20100101 Firefox/128.0" etag="MLZ-SC46QJH9C7QEnwXH" version="24.7.1" type="github">
  <diagram name="Page-1" id="j89aKlz93b5TGSYL8AUA">
    <mxGraphModel dx="683" dy="361" grid="1" gridSize="10" guides="1" tooltips="1" connect="1" arrows="1" fold="1" page="1" pageScale="1" pageWidth="850" pageHeight="1100" math="0" shadow="0">
      <root>
        <mxCell id="0" />
        <mxCell id="1" parent="0" />
        <mxCell id="AvRCRV11TRQ9OQ-fSeNe-3" style="edgeStyle=orthogonalEdgeStyle;rounded=0;orthogonalLoop=1;jettySize=auto;html=1;entryX=0.5;entryY=0;entryDx=0;entryDy=0;" edge="1" parent="1" source="AvRCRV11TRQ9OQ-fSeNe-1" target="AvRCRV11TRQ9OQ-fSeNe-2">
          <mxGeometry relative="1" as="geometry" />
        </mxCell>
        <mxCell id="AvRCRV11TRQ9OQ-fSeNe-1" value="" style="shape=umlActor;verticalLabelPosition=bottom;verticalAlign=top;html=1;outlineConnect=0;" vertex="1" parent="1">
          <mxGeometry x="210" y="40" width="30" height="60" as="geometry" />
        </mxCell>
        <mxCell id="AvRCRV11TRQ9OQ-fSeNe-2" value="" style="rhombus;whiteSpace=wrap;html=1;" vertex="1" parent="1">
          <mxGeometry x="185" y="190" width="80" height="80" as="geometry" />
        </mxCell>
        <mxCell id="AvRCRV11TRQ9OQ-fSeNe-4" value="&lt;div&gt;Dept. Secratory&lt;/div&gt;" style="text;html=1;align=center;verticalAlign=middle;resizable=0;points=[];autosize=1;strokeColor=none;fillColor=none;" vertex="1" parent="1">
          <mxGeometry x="90" y="55" width="110" height="30" as="geometry" />
        </mxCell>
      </root>
    </mxGraphModel>
  </diagram>
</mxfile>
